P2
16 16
255
0   0   0   0   0   0   0   0   0   0   0   0   0   0   0   0
0   0   0   0   0   255 255 0   0   0   0   0   0   0   0   0
0   0   0   0   0   255 255 255 0   0   0   0   0   0   0   0
0   0   0   255 255 255 255 255 255 0   127 127 0   127 127 0
0   0   255 255 255 255 255 255 0   0   127 127 0   127 127 0
0   255 255 255 255 255 255 255 0   0   127 127 127 127 127 0
0   255 255 255 255 255 0   0   0   0   127 127 127 127 127 0
0   0   0   255 0   0   0   0   0   0   0   127 127 127 127 0
0   0   0   0   0   0   60  60  60  60  0   0   127 127 0   0
0   0   0   0   0   60  60  60  60  60  60  0   0   0   0   0
0   0   0   0   60  60  60  60  60  60  60  60  0   0   0   0
0   0   0   60  60  60  60  60  60  60  60  60  60  0   0   0
0   0   60  60  60  60  60  60  60  60  60  60  60  0   0   0
0   0   60  60  60  60  0   0   0   60  60  60  0   0   0   0
0   0   0   60  60  0   0   0   0   0   0   0   0   0   0   0
0   0   0   0   0   0   0   0   0   0   0   0   0   0   0   0